<mxfile host="app.diagrams.net" modified="2023-03-13T02:07:17.611Z" agent="5.0 (Macintosh; Intel Mac OS X 10_15_7) AppleWebKit/537.36 (KHTML, like Gecko) Chrome/111.0.0.0 Safari/537.36" etag="SI2hG3iOcUet4ESUzZvH" version="21.0.6" type="github">
  <diagram id="kgpKYQtTHZ0yAKxKKP6v" name="Page-1">
    <mxGraphModel dx="1674" dy="734" grid="1" gridSize="10" guides="1" tooltips="1" connect="1" arrows="1" fold="1" page="1" pageScale="1" pageWidth="850" pageHeight="1100" math="0" shadow="0">
      <root>
        <mxCell id="0" />
        <mxCell id="1" parent="0" />
        <mxCell id="-FbHU8xZymfD9JMqfPQ6-45" value="" style="rounded=1;whiteSpace=wrap;html=1;fillColor=#66B2FF;" vertex="1" parent="1">
          <mxGeometry x="480" y="1190" width="720" height="370" as="geometry" />
        </mxCell>
        <mxCell id="-FbHU8xZymfD9JMqfPQ6-9" value="" style="rounded=1;whiteSpace=wrap;html=1;fillColor=#66B2FF;" vertex="1" parent="1">
          <mxGeometry x="480" y="960" width="810" height="190" as="geometry" />
        </mxCell>
        <mxCell id="-FbHU8xZymfD9JMqfPQ6-4" value="" style="rounded=0;whiteSpace=wrap;html=1;fillColor=#66B2FF;" vertex="1" parent="1">
          <mxGeometry x="600" y="270" width="380" height="200" as="geometry" />
        </mxCell>
        <mxCell id="3nuBFxr9cyL0pnOWT2aG-1" value="open-gateway" style="shape=umlLifeline;perimeter=lifelinePerimeter;container=1;collapsible=0;recursiveResize=0;rounded=0;shadow=0;strokeWidth=1;" parent="1" vertex="1">
          <mxGeometry x="120" y="80" width="100" height="1490" as="geometry" />
        </mxCell>
        <mxCell id="3nuBFxr9cyL0pnOWT2aG-2" value="" style="points=[];perimeter=orthogonalPerimeter;rounded=0;shadow=0;strokeWidth=1;" parent="3nuBFxr9cyL0pnOWT2aG-1" vertex="1">
          <mxGeometry x="45" y="70" width="10" height="1170" as="geometry" />
        </mxCell>
        <mxCell id="3nuBFxr9cyL0pnOWT2aG-3" value="业务方调用" style="verticalAlign=bottom;startArrow=oval;endArrow=block;startSize=8;shadow=0;strokeWidth=1;" parent="3nuBFxr9cyL0pnOWT2aG-1" target="3nuBFxr9cyL0pnOWT2aG-2" edge="1">
          <mxGeometry relative="1" as="geometry">
            <mxPoint x="-60" y="70" as="sourcePoint" />
          </mxGeometry>
        </mxCell>
        <mxCell id="3nuBFxr9cyL0pnOWT2aG-8" value="转发请求" style="verticalAlign=bottom;endArrow=block;entryX=0;entryY=0;shadow=0;strokeWidth=1;" parent="1" source="3nuBFxr9cyL0pnOWT2aG-2" target="3nuBFxr9cyL0pnOWT2aG-6" edge="1">
          <mxGeometry relative="1" as="geometry">
            <mxPoint x="275" y="160" as="sourcePoint" />
          </mxGeometry>
        </mxCell>
        <mxCell id="3nuBFxr9cyL0pnOWT2aG-10" value="返回模板状态、转换后数据、&#xa;测试人员、测试群、&#xa;知识网络实体等" style="verticalAlign=bottom;endArrow=open;dashed=1;endSize=8;shadow=0;strokeWidth=1;entryX=1.1;entryY=0.356;entryDx=0;entryDy=0;entryPerimeter=0;" parent="1" edge="1">
          <mxGeometry x="-0.0837" y="18" relative="1" as="geometry">
            <mxPoint x="356" y="211.96000000000004" as="targetPoint" />
            <mxPoint x="529.5" y="211.96000000000004" as="sourcePoint" />
            <Array as="points">
              <mxPoint x="460" y="212" />
            </Array>
            <mxPoint as="offset" />
          </mxGeometry>
        </mxCell>
        <mxCell id="_-XLKiYhztIRVs0oLOAJ-1" value="dynamic-build" style="shape=umlLifeline;perimeter=lifelinePerimeter;container=1;collapsible=0;recursiveResize=0;rounded=0;shadow=0;strokeWidth=1;" parent="1" vertex="1">
          <mxGeometry x="490" y="80" width="100" height="300" as="geometry" />
        </mxCell>
        <mxCell id="_-XLKiYhztIRVs0oLOAJ-2" value="" style="points=[];perimeter=orthogonalPerimeter;rounded=0;shadow=0;strokeWidth=1;" parent="_-XLKiYhztIRVs0oLOAJ-1" vertex="1">
          <mxGeometry x="45" y="70" width="10" height="70" as="geometry" />
        </mxCell>
        <mxCell id="_-XLKiYhztIRVs0oLOAJ-14" value="判断是否预览发送、&#xa;是否在测试名单" style="verticalAlign=bottom;endArrow=block;shadow=0;strokeWidth=1;" parent="_-XLKiYhztIRVs0oLOAJ-1" edge="1">
          <mxGeometry x="0.484" y="-1" relative="1" as="geometry">
            <mxPoint x="-132" y="161" as="sourcePoint" />
            <mxPoint x="-137.5" y="191" as="targetPoint" />
            <Array as="points">
              <mxPoint x="-17" y="161" />
              <mxPoint x="-17" y="191" />
            </Array>
            <mxPoint as="offset" />
          </mxGeometry>
        </mxCell>
        <mxCell id="3nuBFxr9cyL0pnOWT2aG-9" value="根据 templateid 和 userdata&#xa;获取转换数据和模板成员" style="verticalAlign=bottom;endArrow=block;shadow=0;strokeWidth=1;entryX=-0.5;entryY=0.286;entryDx=0;entryDy=0;entryPerimeter=0;" parent="1" target="_-XLKiYhztIRVs0oLOAJ-2" edge="1">
          <mxGeometry x="-0.1125" y="1" relative="1" as="geometry">
            <mxPoint x="359" y="170" as="sourcePoint" />
            <mxPoint x="524" y="170" as="targetPoint" />
            <Array as="points">
              <mxPoint x="474" y="170" />
            </Array>
            <mxPoint as="offset" />
          </mxGeometry>
        </mxCell>
        <mxCell id="_-XLKiYhztIRVs0oLOAJ-15" value="封装数据，调用旧的工作卡发送接口" style="verticalAlign=bottom;endArrow=block;shadow=0;strokeWidth=1;exitX=1.1;exitY=0.546;exitDx=0;exitDy=0;exitPerimeter=0;" parent="1" edge="1">
          <mxGeometry x="-0.1125" y="1" relative="1" as="geometry">
            <mxPoint x="354" y="302.8800000000001" as="sourcePoint" />
            <mxPoint x="686.5" y="302.8800000000001" as="targetPoint" />
            <Array as="points" />
            <mxPoint as="offset" />
          </mxGeometry>
        </mxCell>
        <mxCell id="_-XLKiYhztIRVs0oLOAJ-19" value="new-imgate" style="shape=umlLifeline;perimeter=lifelinePerimeter;container=1;collapsible=0;recursiveResize=0;rounded=0;shadow=0;strokeWidth=1;" parent="1" vertex="1">
          <mxGeometry x="1000" y="80" width="165" height="980" as="geometry" />
        </mxCell>
        <mxCell id="-FbHU8xZymfD9JMqfPQ6-2" value="" style="rounded=1;whiteSpace=wrap;html=1;fillColor=#66B2FF;" vertex="1" parent="_-XLKiYhztIRVs0oLOAJ-19">
          <mxGeometry x="-690" y="416" width="800" height="340" as="geometry" />
        </mxCell>
        <mxCell id="-FbHU8xZymfD9JMqfPQ6-5" value="&lt;b&gt;&lt;font style=&quot;font-size: 14px;&quot;&gt;接口层（或者称作是适配层），主要完成参数校验、调用者身份校验，requestVO-&amp;gt;requestDTO&lt;/font&gt;&lt;/b&gt;" style="text;html=1;strokeColor=none;fillColor=none;align=center;verticalAlign=middle;whiteSpace=wrap;rounded=0;" vertex="1" parent="_-XLKiYhztIRVs0oLOAJ-19">
          <mxGeometry x="-12.5" y="220" width="152.5" height="100" as="geometry" />
        </mxCell>
        <mxCell id="_-XLKiYhztIRVs0oLOAJ-21" value="chat" style="shape=umlLifeline;perimeter=lifelinePerimeter;container=1;collapsible=0;recursiveResize=0;rounded=0;shadow=0;strokeWidth=1;" parent="1" vertex="1">
          <mxGeometry x="1210" y="80" width="110" height="1130" as="geometry" />
        </mxCell>
        <mxCell id="_-XLKiYhztIRVs0oLOAJ-25" value="各种参数校验" style="verticalAlign=bottom;endArrow=block;shadow=0;strokeWidth=1;entryX=1;entryY=0.288;entryDx=0;entryDy=0;entryPerimeter=0;" parent="1" edge="1">
          <mxGeometry x="0.484" y="-1" relative="1" as="geometry">
            <mxPoint x="698" y="309" as="sourcePoint" />
            <mxPoint x="700" y="330.0799999999999" as="targetPoint" />
            <Array as="points">
              <mxPoint x="813" y="309" />
              <mxPoint x="813" y="330" />
            </Array>
            <mxPoint as="offset" />
          </mxGeometry>
        </mxCell>
        <mxCell id="_-XLKiYhztIRVs0oLOAJ-26" value="机器人是否在群组、用户是否&#xa;关注或屏蔽服务号消息" style="verticalAlign=bottom;endArrow=block;shadow=0;strokeWidth=1;entryX=1;entryY=0.149;entryDx=0;entryDy=0;entryPerimeter=0;" parent="1" target="_-XLKiYhztIRVs0oLOAJ-5" edge="1">
          <mxGeometry x="0.484" y="-1" relative="1" as="geometry">
            <mxPoint x="699" y="345" as="sourcePoint" />
            <mxPoint x="710" y="380" as="targetPoint" />
            <Array as="points">
              <mxPoint x="814" y="345" />
              <mxPoint x="820" y="387" />
            </Array>
            <mxPoint as="offset" />
          </mxGeometry>
        </mxCell>
        <mxCell id="_-XLKiYhztIRVs0oLOAJ-28" value="返回群组或用户信息" style="verticalAlign=bottom;endArrow=open;dashed=1;endSize=8;exitX=-0.1;exitY=0.857;shadow=0;strokeWidth=1;exitDx=0;exitDy=0;exitPerimeter=0;" parent="1" target="_-XLKiYhztIRVs0oLOAJ-5" edge="1">
          <mxGeometry relative="1" as="geometry">
            <mxPoint x="699" y="433.29999999999995" as="targetPoint" />
            <mxPoint x="864" y="426.1300000000001" as="sourcePoint" />
            <Array as="points">
              <mxPoint x="800" y="429" />
            </Array>
          </mxGeometry>
        </mxCell>
        <mxCell id="_-XLKiYhztIRVs0oLOAJ-30" value="生成cardid" style="verticalAlign=bottom;endArrow=block;shadow=0;strokeWidth=1;" parent="1" edge="1">
          <mxGeometry x="0.5761" y="-8" relative="1" as="geometry">
            <mxPoint x="700" y="630" as="sourcePoint" />
            <mxPoint x="700" y="660" as="targetPoint" />
            <Array as="points">
              <mxPoint x="817" y="630" />
              <mxPoint x="816" y="660" />
            </Array>
            <mxPoint as="offset" />
          </mxGeometry>
        </mxCell>
        <mxCell id="_-XLKiYhztIRVs0oLOAJ-31" value="知识网络实体&#xa;发送kafka" style="verticalAlign=bottom;endArrow=block;shadow=0;strokeWidth=1;" parent="1" edge="1">
          <mxGeometry x="0.5438" relative="1" as="geometry">
            <mxPoint x="700" y="676" as="sourcePoint" />
            <mxPoint x="700" y="706" as="targetPoint" />
            <Array as="points">
              <mxPoint x="817" y="676" />
              <mxPoint x="816" y="706" />
            </Array>
            <mxPoint as="offset" />
          </mxGeometry>
        </mxCell>
        <mxCell id="_-XLKiYhztIRVs0oLOAJ-32" value="打标逻辑" style="verticalAlign=bottom;endArrow=block;shadow=0;strokeWidth=1;" parent="1" edge="1">
          <mxGeometry x="0.5761" y="-8" relative="1" as="geometry">
            <mxPoint x="702" y="542" as="sourcePoint" />
            <mxPoint x="702" y="572" as="targetPoint" />
            <Array as="points">
              <mxPoint x="819" y="542" />
              <mxPoint x="818" y="572" />
            </Array>
            <mxPoint as="offset" />
          </mxGeometry>
        </mxCell>
        <mxCell id="_-XLKiYhztIRVs0oLOAJ-33" value="待阅逻辑" style="verticalAlign=bottom;endArrow=block;shadow=0;strokeWidth=1;" parent="1" edge="1">
          <mxGeometry x="0.5761" y="-8" relative="1" as="geometry">
            <mxPoint x="700" y="589" as="sourcePoint" />
            <mxPoint x="700" y="619" as="targetPoint" />
            <Array as="points">
              <mxPoint x="817" y="589" />
              <mxPoint x="816" y="619" />
            </Array>
            <mxPoint as="offset" />
          </mxGeometry>
        </mxCell>
        <mxCell id="_-XLKiYhztIRVs0oLOAJ-35" value="构建通道消息实体，&#xa;同时添加客户端埋点数据" style="verticalAlign=bottom;endArrow=block;shadow=0;strokeWidth=1;" parent="1" edge="1">
          <mxGeometry x="0.5666" y="-5" relative="1" as="geometry">
            <mxPoint x="703" y="769" as="sourcePoint" />
            <mxPoint x="703" y="809" as="targetPoint" />
            <Array as="points">
              <mxPoint x="820" y="769" />
              <mxPoint x="820" y="809" />
            </Array>
            <mxPoint as="offset" />
          </mxGeometry>
        </mxCell>
        <mxCell id="_-XLKiYhztIRVs0oLOAJ-48" value="生成 interactivity_token" style="verticalAlign=bottom;endArrow=block;shadow=0;strokeWidth=1;" parent="1" edge="1">
          <mxGeometry x="0.5666" y="-5" relative="1" as="geometry">
            <mxPoint x="713" y="734" as="sourcePoint" />
            <mxPoint x="713" y="764" as="targetPoint" />
            <Array as="points">
              <mxPoint x="830" y="734" />
              <mxPoint x="829" y="764" />
            </Array>
            <mxPoint as="offset" />
          </mxGeometry>
        </mxCell>
        <mxCell id="_-XLKiYhztIRVs0oLOAJ-29" value="调用数据服务生成周报、审批模板兼容数据" style="verticalAlign=bottom;endArrow=block;shadow=0;strokeWidth=1;exitX=-0.2;exitY=0.164;exitDx=0;exitDy=0;exitPerimeter=0;" parent="1" edge="1">
          <mxGeometry x="0.0517" y="-2" relative="1" as="geometry">
            <mxPoint x="688" y="509.55999999999995" as="sourcePoint" />
            <mxPoint x="349.5" y="509" as="targetPoint" />
            <Array as="points">
              <mxPoint x="660" y="509" />
              <mxPoint x="640" y="509" />
            </Array>
            <mxPoint as="offset" />
          </mxGeometry>
        </mxCell>
        <mxCell id="_-XLKiYhztIRVs0oLOAJ-57" value="return" style="verticalAlign=bottom;endArrow=open;dashed=1;endSize=8;shadow=0;strokeWidth=1;exitX=1;exitY=0.6;exitDx=0;exitDy=0;exitPerimeter=0;" parent="1" edge="1">
          <mxGeometry relative="1" as="geometry">
            <mxPoint x="694.5" y="533" as="targetPoint" />
            <mxPoint x="355" y="533" as="sourcePoint" />
          </mxGeometry>
        </mxCell>
        <mxCell id="3nuBFxr9cyL0pnOWT2aG-5" value="card-adapter" style="shape=umlLifeline;perimeter=lifelinePerimeter;container=1;collapsible=0;recursiveResize=0;rounded=0;shadow=0;strokeWidth=1;" parent="1" vertex="1">
          <mxGeometry x="300" y="80" width="170" height="1480" as="geometry" />
        </mxCell>
        <mxCell id="3nuBFxr9cyL0pnOWT2aG-6" value="" style="points=[];perimeter=orthogonalPerimeter;rounded=0;shadow=0;strokeWidth=1;" parent="3nuBFxr9cyL0pnOWT2aG-5" vertex="1">
          <mxGeometry x="45" y="70" width="10" height="180" as="geometry" />
        </mxCell>
        <mxCell id="_-XLKiYhztIRVs0oLOAJ-56" value="" style="points=[];perimeter=orthogonalPerimeter;rounded=0;shadow=0;strokeWidth=1;" parent="3nuBFxr9cyL0pnOWT2aG-5" vertex="1">
          <mxGeometry x="45" y="414" width="10" height="60" as="geometry" />
        </mxCell>
        <mxCell id="-FbHU8xZymfD9JMqfPQ6-11" value="&lt;b style=&quot;border-color: var(--border-color); color: rgb(0, 0, 0); font-family: Helvetica; font-size: 12px; font-style: normal; font-variant-ligatures: normal; font-variant-caps: normal; letter-spacing: normal; orphans: 2; text-align: center; text-indent: 0px; text-transform: none; widows: 2; word-spacing: 0px; -webkit-text-stroke-width: 0px; background-color: rgb(251, 251, 251); text-decoration-thickness: initial; text-decoration-style: initial; text-decoration-color: initial;&quot;&gt;&lt;font style=&quot;border-color: var(--border-color); font-size: 14px;&quot;&gt;链路层（消费待发送队列中的 CardBO 对象，转换成链路层协议对象进行发送）&lt;/font&gt;&lt;/b&gt;" style="text;whiteSpace=wrap;html=1;" vertex="1" parent="3nuBFxr9cyL0pnOWT2aG-5">
          <mxGeometry x="24" y="940" width="140" height="90" as="geometry" />
        </mxCell>
        <mxCell id="-FbHU8xZymfD9JMqfPQ6-39" value="&lt;div style=&quot;text-align: center;&quot;&gt;&lt;span style=&quot;background-color: initial; font-size: 14px;&quot;&gt;&lt;b&gt;数据层（存储工作卡数据）&lt;/b&gt;&lt;/span&gt;&lt;/div&gt;" style="text;whiteSpace=wrap;html=1;" vertex="1" parent="3nuBFxr9cyL0pnOWT2aG-5">
          <mxGeometry x="30" y="1190" width="140" height="90" as="geometry" />
        </mxCell>
        <mxCell id="_-XLKiYhztIRVs0oLOAJ-4" value="open-api-im" style="shape=umlLifeline;perimeter=lifelinePerimeter;container=1;collapsible=0;recursiveResize=0;rounded=0;shadow=0;strokeWidth=1;" parent="1" vertex="1">
          <mxGeometry x="640" y="80" width="110" height="1710" as="geometry" />
        </mxCell>
        <mxCell id="_-XLKiYhztIRVs0oLOAJ-5" value="" style="points=[];perimeter=orthogonalPerimeter;rounded=0;shadow=0;strokeWidth=1;" parent="_-XLKiYhztIRVs0oLOAJ-4" vertex="1">
          <mxGeometry x="50" y="210" width="10" height="650" as="geometry" />
        </mxCell>
        <mxCell id="-FbHU8xZymfD9JMqfPQ6-13" value="" style="endArrow=classic;html=1;rounded=0;exitX=1.2;exitY=0.885;exitDx=0;exitDy=0;exitPerimeter=0;entryX=1.1;entryY=0.952;entryDx=0;entryDy=0;entryPerimeter=0;" edge="1" parent="_-XLKiYhztIRVs0oLOAJ-4" source="_-XLKiYhztIRVs0oLOAJ-5" target="_-XLKiYhztIRVs0oLOAJ-5">
          <mxGeometry width="50" height="50" relative="1" as="geometry">
            <mxPoint x="90" y="850" as="sourcePoint" />
            <mxPoint x="140" y="800" as="targetPoint" />
            <Array as="points">
              <mxPoint x="170" y="785" />
              <mxPoint x="170" y="829" />
            </Array>
          </mxGeometry>
        </mxCell>
        <mxCell id="-FbHU8xZymfD9JMqfPQ6-14" value="写入 kafka，&lt;br&gt;待发送队列" style="edgeLabel;html=1;align=center;verticalAlign=middle;resizable=0;points=[];" vertex="1" connectable="0" parent="-FbHU8xZymfD9JMqfPQ6-13">
          <mxGeometry x="-0.4099" y="4" relative="1" as="geometry">
            <mxPoint x="-9" y="29" as="offset" />
          </mxGeometry>
        </mxCell>
        <mxCell id="-FbHU8xZymfD9JMqfPQ6-41" value="" style="points=[];perimeter=orthogonalPerimeter;rounded=0;shadow=0;strokeWidth=1;" vertex="1" parent="_-XLKiYhztIRVs0oLOAJ-4">
          <mxGeometry x="50" y="1300" width="10" height="130" as="geometry" />
        </mxCell>
        <mxCell id="-FbHU8xZymfD9JMqfPQ6-40" value="" style="points=[];perimeter=orthogonalPerimeter;rounded=0;shadow=0;strokeWidth=1;" vertex="1" parent="_-XLKiYhztIRVs0oLOAJ-4">
          <mxGeometry x="50" y="1120" width="10" height="161" as="geometry" />
        </mxCell>
        <mxCell id="_-XLKiYhztIRVs0oLOAJ-27" value="rpc查询接收群组或用户" style="verticalAlign=bottom;endArrow=block;shadow=0;strokeWidth=1;entryX=0;entryY=0.578;entryDx=0;entryDy=0;entryPerimeter=0;exitX=1.3;exitY=0.177;exitDx=0;exitDy=0;exitPerimeter=0;" parent="1" edge="1">
          <mxGeometry x="-0.1125" y="1" relative="1" as="geometry">
            <mxPoint x="703" y="409.04999999999995" as="sourcePoint" />
            <mxPoint x="865" y="406.02" as="targetPoint" />
            <Array as="points" />
            <mxPoint as="offset" />
          </mxGeometry>
        </mxCell>
        <mxCell id="-FbHU8xZymfD9JMqfPQ6-3" value="&lt;b&gt;&lt;font style=&quot;font-size: 14px;&quot;&gt;业务层（通过责任链模式，方便后续添加业务）&lt;br&gt;requestDTO-&amp;gt;CardBO&lt;br&gt;&lt;/font&gt;&lt;/b&gt;" style="text;html=1;strokeColor=none;fillColor=none;align=center;verticalAlign=middle;whiteSpace=wrap;rounded=0;" vertex="1" parent="1">
          <mxGeometry x="200" y="660" width="100" height="110" as="geometry" />
        </mxCell>
        <mxCell id="-FbHU8xZymfD9JMqfPQ6-15" value="" style="points=[];perimeter=orthogonalPerimeter;rounded=0;shadow=0;strokeWidth=1;" vertex="1" parent="1">
          <mxGeometry x="690" y="980" width="10" height="160" as="geometry" />
        </mxCell>
        <mxCell id="-FbHU8xZymfD9JMqfPQ6-16" value="" style="endArrow=classic;html=1;rounded=0;exitX=1;exitY=0.213;exitDx=0;exitDy=0;exitPerimeter=0;" edge="1" parent="1" source="-FbHU8xZymfD9JMqfPQ6-15" target="-FbHU8xZymfD9JMqfPQ6-7">
          <mxGeometry width="50" height="50" relative="1" as="geometry">
            <mxPoint x="740" y="1030" as="sourcePoint" />
            <mxPoint x="790" y="980" as="targetPoint" />
          </mxGeometry>
        </mxCell>
        <mxCell id="-FbHU8xZymfD9JMqfPQ6-20" value="消费待发送队列，&lt;br&gt;发送工作卡" style="edgeLabel;html=1;align=center;verticalAlign=middle;resizable=0;points=[];" vertex="1" connectable="0" parent="-FbHU8xZymfD9JMqfPQ6-16">
          <mxGeometry x="-0.3904" y="2" relative="1" as="geometry">
            <mxPoint as="offset" />
          </mxGeometry>
        </mxCell>
        <mxCell id="-FbHU8xZymfD9JMqfPQ6-23" value="" style="edgeStyle=orthogonalEdgeStyle;rounded=0;orthogonalLoop=1;jettySize=auto;html=1;" edge="1" parent="1" source="-FbHU8xZymfD9JMqfPQ6-18" target="-FbHU8xZymfD9JMqfPQ6-22">
          <mxGeometry relative="1" as="geometry" />
        </mxCell>
        <mxCell id="-FbHU8xZymfD9JMqfPQ6-30" value="发送" style="edgeLabel;html=1;align=center;verticalAlign=middle;resizable=0;points=[];" vertex="1" connectable="0" parent="-FbHU8xZymfD9JMqfPQ6-23">
          <mxGeometry x="-0.0116" relative="1" as="geometry">
            <mxPoint as="offset" />
          </mxGeometry>
        </mxCell>
        <mxCell id="-FbHU8xZymfD9JMqfPQ6-27" value="" style="edgeStyle=orthogonalEdgeStyle;rounded=0;orthogonalLoop=1;jettySize=auto;html=1;exitX=-0.3;exitY=0.913;exitDx=0;exitDy=0;exitPerimeter=0;entryX=1.05;entryY=0.74;entryDx=0;entryDy=0;entryPerimeter=0;" edge="1" parent="1" source="-FbHU8xZymfD9JMqfPQ6-18" target="-FbHU8xZymfD9JMqfPQ6-17">
          <mxGeometry relative="1" as="geometry">
            <mxPoint x="960" y="1070" as="targetPoint" />
          </mxGeometry>
        </mxCell>
        <mxCell id="-FbHU8xZymfD9JMqfPQ6-33" value="返回" style="edgeLabel;html=1;align=center;verticalAlign=middle;resizable=0;points=[];" vertex="1" connectable="0" parent="-FbHU8xZymfD9JMqfPQ6-27">
          <mxGeometry x="0.0365" y="2" relative="1" as="geometry">
            <mxPoint as="offset" />
          </mxGeometry>
        </mxCell>
        <mxCell id="-FbHU8xZymfD9JMqfPQ6-18" value="" style="points=[];perimeter=orthogonalPerimeter;rounded=0;shadow=0;strokeWidth=1;" vertex="1" parent="1">
          <mxGeometry x="1074" y="980" width="10" height="80" as="geometry" />
        </mxCell>
        <mxCell id="-FbHU8xZymfD9JMqfPQ6-19" value="" style="edgeStyle=orthogonalEdgeStyle;rounded=0;orthogonalLoop=1;jettySize=auto;html=1;exitX=1.05;exitY=0.39;exitDx=0;exitDy=0;exitPerimeter=0;" edge="1" parent="1" source="-FbHU8xZymfD9JMqfPQ6-17">
          <mxGeometry relative="1" as="geometry">
            <mxPoint x="940" y="1016" as="sourcePoint" />
            <mxPoint x="1070" y="1016" as="targetPoint" />
          </mxGeometry>
        </mxCell>
        <mxCell id="-FbHU8xZymfD9JMqfPQ6-29" value="发送" style="edgeLabel;html=1;align=center;verticalAlign=middle;resizable=0;points=[];" vertex="1" connectable="0" parent="-FbHU8xZymfD9JMqfPQ6-19">
          <mxGeometry x="-0.2769" relative="1" as="geometry">
            <mxPoint as="offset" />
          </mxGeometry>
        </mxCell>
        <mxCell id="-FbHU8xZymfD9JMqfPQ6-22" value="" style="points=[];perimeter=orthogonalPerimeter;rounded=0;shadow=0;strokeWidth=1;" vertex="1" parent="1">
          <mxGeometry x="1256" y="980" width="10" height="80" as="geometry" />
        </mxCell>
        <mxCell id="-FbHU8xZymfD9JMqfPQ6-24" value="" style="endArrow=classic;html=1;rounded=0;exitX=-0.1;exitY=0.788;exitDx=0;exitDy=0;exitPerimeter=0;" edge="1" parent="1" source="-FbHU8xZymfD9JMqfPQ6-22" target="_-XLKiYhztIRVs0oLOAJ-19">
          <mxGeometry width="50" height="50" relative="1" as="geometry">
            <mxPoint x="1170" y="1070" as="sourcePoint" />
            <mxPoint x="1050" y="1120" as="targetPoint" />
          </mxGeometry>
        </mxCell>
        <mxCell id="-FbHU8xZymfD9JMqfPQ6-32" value="返回" style="edgeLabel;html=1;align=center;verticalAlign=middle;resizable=0;points=[];" vertex="1" connectable="0" parent="-FbHU8xZymfD9JMqfPQ6-24">
          <mxGeometry x="-0.2139" y="-3" relative="1" as="geometry">
            <mxPoint as="offset" />
          </mxGeometry>
        </mxCell>
        <mxCell id="-FbHU8xZymfD9JMqfPQ6-28" value="" style="endArrow=classic;html=1;rounded=0;exitX=0.05;exitY=0.9;exitDx=0;exitDy=0;exitPerimeter=0;" edge="1" parent="1" source="-FbHU8xZymfD9JMqfPQ6-17">
          <mxGeometry width="50" height="50" relative="1" as="geometry">
            <mxPoint x="780" y="1160" as="sourcePoint" />
            <mxPoint x="700" y="1070" as="targetPoint" />
          </mxGeometry>
        </mxCell>
        <mxCell id="-FbHU8xZymfD9JMqfPQ6-34" value="返回" style="edgeLabel;html=1;align=center;verticalAlign=middle;resizable=0;points=[];" vertex="1" connectable="0" parent="-FbHU8xZymfD9JMqfPQ6-28">
          <mxGeometry x="0.1111" relative="1" as="geometry">
            <mxPoint as="offset" />
          </mxGeometry>
        </mxCell>
        <mxCell id="-FbHU8xZymfD9JMqfPQ6-35" value="" style="endArrow=classic;html=1;rounded=0;exitX=1.3;exitY=0.719;exitDx=0;exitDy=0;exitPerimeter=0;entryX=1;entryY=0.931;entryDx=0;entryDy=0;entryPerimeter=0;" edge="1" parent="1" source="-FbHU8xZymfD9JMqfPQ6-15" target="-FbHU8xZymfD9JMqfPQ6-15">
          <mxGeometry width="50" height="50" relative="1" as="geometry">
            <mxPoint x="730" y="1140" as="sourcePoint" />
            <mxPoint x="780" y="1090" as="targetPoint" />
            <Array as="points">
              <mxPoint x="820" y="1095" />
              <mxPoint x="820" y="1130" />
            </Array>
          </mxGeometry>
        </mxCell>
        <mxCell id="-FbHU8xZymfD9JMqfPQ6-36" value="写入 kafka，&lt;br style=&quot;border-color: var(--border-color); font-size: 11px;&quot;&gt;&lt;span style=&quot;font-size: 11px; background-color: rgb(255, 255, 255);&quot;&gt;发送成功队列&lt;/span&gt;" style="text;html=1;align=center;verticalAlign=middle;resizable=0;points=[];autosize=1;strokeColor=none;fillColor=none;" vertex="1" parent="1">
          <mxGeometry x="710" y="1090" width="100" height="40" as="geometry" />
        </mxCell>
        <mxCell id="3nuBFxr9cyL0pnOWT2aG-7" value="return" style="verticalAlign=bottom;endArrow=open;dashed=1;endSize=8;shadow=0;strokeWidth=1;" parent="1" edge="1">
          <mxGeometry relative="1" as="geometry">
            <mxPoint x="165" y="930" as="targetPoint" />
            <mxPoint x="684.5" y="930" as="sourcePoint" />
          </mxGeometry>
        </mxCell>
        <mxCell id="_-XLKiYhztIRVs0oLOAJ-49" value="存储动态内容" style="verticalAlign=bottom;endArrow=block;shadow=0;strokeWidth=1;startArrow=none;" parent="1" edge="1">
          <mxGeometry x="0.5666" y="-5" relative="1" as="geometry">
            <mxPoint x="694.5" y="1326" as="sourcePoint" />
            <mxPoint x="703" y="1356" as="targetPoint" />
            <Array as="points">
              <mxPoint x="820" y="1326" />
              <mxPoint x="819" y="1356" />
            </Array>
            <mxPoint as="offset" />
          </mxGeometry>
        </mxCell>
        <mxCell id="_-XLKiYhztIRVs0oLOAJ-51" value="消费发送消息队列" style="verticalAlign=bottom;endArrow=block;shadow=0;strokeWidth=1;" parent="1" edge="1">
          <mxGeometry x="0.5666" y="-5" relative="1" as="geometry">
            <mxPoint x="700" y="1220" as="sourcePoint" />
            <mxPoint x="700" y="1250" as="targetPoint" />
            <Array as="points">
              <mxPoint x="817" y="1220" />
              <mxPoint x="816" y="1250" />
            </Array>
            <mxPoint as="offset" />
          </mxGeometry>
        </mxCell>
        <mxCell id="_-XLKiYhztIRVs0oLOAJ-52" value="存储发送日志" style="verticalAlign=bottom;endArrow=block;shadow=0;strokeWidth=1;" parent="1" edge="1">
          <mxGeometry x="0.5666" y="-5" relative="1" as="geometry">
            <mxPoint x="700" y="1420" as="sourcePoint" />
            <mxPoint x="700" y="1450" as="targetPoint" />
            <Array as="points">
              <mxPoint x="817" y="1420" />
              <mxPoint x="816" y="1450" />
            </Array>
            <mxPoint as="offset" />
          </mxGeometry>
        </mxCell>
        <mxCell id="_-XLKiYhztIRVs0oLOAJ-53" value="存储私有化内容" style="verticalAlign=bottom;endArrow=block;shadow=0;strokeWidth=1;" parent="1" edge="1">
          <mxGeometry x="0.5666" y="-5" relative="1" as="geometry">
            <mxPoint x="702" y="1382" as="sourcePoint" />
            <mxPoint x="702" y="1412" as="targetPoint" />
            <Array as="points">
              <mxPoint x="819" y="1382" />
              <mxPoint x="818" y="1412" />
            </Array>
            <mxPoint as="offset" />
          </mxGeometry>
        </mxCell>
        <mxCell id="_-XLKiYhztIRVs0oLOAJ-54" value="同步数据到看板" style="verticalAlign=bottom;endArrow=block;shadow=0;strokeWidth=1;" parent="1" edge="1">
          <mxGeometry x="0.5666" y="-5" relative="1" as="geometry">
            <mxPoint x="700" y="1467" as="sourcePoint" />
            <mxPoint x="700" y="1497" as="targetPoint" />
            <Array as="points">
              <mxPoint x="817" y="1467" />
              <mxPoint x="816" y="1497" />
            </Array>
            <mxPoint as="offset" />
          </mxGeometry>
        </mxCell>
        <mxCell id="-FbHU8xZymfD9JMqfPQ6-42" value="存储 modify_token&#xa;存储消息映射数据" style="verticalAlign=bottom;endArrow=block;shadow=0;strokeWidth=1;" edge="1" parent="1">
          <mxGeometry x="0.5666" y="-5" relative="1" as="geometry">
            <mxPoint x="703" y="1284" as="sourcePoint" />
            <mxPoint x="703" y="1314" as="targetPoint" />
            <Array as="points">
              <mxPoint x="820" y="1284" />
              <mxPoint x="819" y="1314" />
            </Array>
            <mxPoint as="offset" />
          </mxGeometry>
        </mxCell>
        <mxCell id="-FbHU8xZymfD9JMqfPQ6-7" value="eim-open" style="shape=umlLifeline;perimeter=lifelinePerimeter;container=1;collapsible=0;recursiveResize=0;rounded=0;shadow=0;strokeWidth=1;" vertex="1" parent="1">
          <mxGeometry x="810" y="80" width="130" height="1650" as="geometry" />
        </mxCell>
        <mxCell id="-FbHU8xZymfD9JMqfPQ6-10" value="" style="points=[];perimeter=orthogonalPerimeter;rounded=0;shadow=0;strokeWidth=1;" vertex="1" parent="-FbHU8xZymfD9JMqfPQ6-7">
          <mxGeometry x="60" y="275" width="10" height="90" as="geometry" />
        </mxCell>
        <mxCell id="-FbHU8xZymfD9JMqfPQ6-17" value="" style="points=[];perimeter=orthogonalPerimeter;rounded=0;shadow=0;strokeWidth=1;" vertex="1" parent="-FbHU8xZymfD9JMqfPQ6-7">
          <mxGeometry x="62.5" y="900" width="10" height="100" as="geometry" />
        </mxCell>
      </root>
    </mxGraphModel>
  </diagram>
</mxfile>
